<?xml version="1.0" encoding="UTF-8" standalone="no"?>
<svg
   xmlns:dc="http://purl.org/dc/elements/1.1/"
   xmlns:cc="http://creativecommons.org/ns#"
   xmlns:rdf="http://www.w3.org/1999/02/22-rdf-syntax-ns#"
   xmlns:svg="http://www.w3.org/2000/svg"
   xmlns="http://www.w3.org/2000/svg"
   xmlns:xlink="http://www.w3.org/1999/xlink"
   xmlns:sodipodi="http://sodipodi.sourceforge.net/DTD/sodipodi-0.dtd"
   xmlns:inkscape="http://www.inkscape.org/namespaces/inkscape"
   width="512"
   height="512"
   viewBox="0 0 135.46666 135.46667"
   version="1.1"
   id="svg2398"
   inkscape:version="1.0.1 (c497b03c, 2020-09-10)"
   sodipodi:docname="Krishan Logo.svg">
  <defs
     id="defs2392">
    <linearGradient
       inkscape:collect="always"
       id="linearGradient3133">
      <stop
         style="stop-color:#0a0905;stop-opacity:1"
         offset="0"
         id="stop3129" />
      <stop
         style="stop-color:#ffffff;stop-opacity:0.91059601"
         offset="0.34873447"
         id="stop3137" />
      <stop
         style="stop-color:#695e35;stop-opacity:0.55686277"
         offset="0.43903711"
         id="stop3139" />
      <stop
         style="stop-color:#cbcbcb;stop-opacity:1"
         offset="0.56523758"
         id="stop3141" />
      <stop
         style="stop-color:#7d7d7d;stop-opacity:0.27843139"
         offset="0.7178483"
         id="stop3143" />
      <stop
         style="stop-color:#b3a369;stop-opacity:0;"
         offset="1"
         id="stop3131" />
    </linearGradient>
    <filter
       inkscape:label="Film Grain"
       inkscape:menu="Image Effects"
       inkscape:menu-tooltip="Adds a small scale graininess"
       style="color-interpolation-filters:sRGB;"
       id="filter3125">
      <feTurbulence
         type="fractalNoise"
         numOctaves="3"
         baseFrequency="0.0040000000000000001 1"
         seed="0"
         result="result0"
         id="feTurbulence3115" />
      <feColorMatrix
         result="result4"
         values="0"
         type="saturate"
         id="feColorMatrix3117" />
      <feComposite
         in="SourceGraphic"
         in2="result4"
         operator="arithmetic"
         k1="0.33000000000000002"
         k2="0.68999999999999995"
         k3="0.11"
         result="result2"
         id="feComposite3119" />
      <feBlend
         result="result5"
         mode="normal"
         in="result2"
         in2="SourceGraphic"
         id="feBlend3121" />
      <feComposite
         in="result5"
         in2="SourceGraphic"
         operator="in"
         result="result3"
         id="feComposite3123" />
    </filter>
    <linearGradient
       inkscape:collect="always"
       xlink:href="#linearGradient3133"
       id="linearGradient3135"
       x1="39.495663"
       y1="91.800011"
       x2="102.77058"
       y2="54.119675"
       gradientUnits="userSpaceOnUse" />
  </defs>
  <sodipodi:namedview
     id="base"
     pagecolor="#ffffff"
     bordercolor="#666666"
     borderopacity="1.0"
     inkscape:pageopacity="0.0"
     inkscape:pageshadow="2"
     inkscape:zoom="1.0146484"
     inkscape:cx="256"
     inkscape:cy="251.76844"
     inkscape:document-units="mm"
     inkscape:current-layer="layer1"
     inkscape:document-rotation="0"
     showgrid="false"
     units="px"
     inkscape:snap-midpoints="true"
     inkscape:snap-intersection-paths="true"
     inkscape:window-width="1920"
     inkscape:window-height="1080"
     inkscape:window-x="0"
     inkscape:window-y="0"
     inkscape:window-maximized="0" />
  <metadata
     id="metadata2395">
    <rdf:RDF>
      <cc:Work
         rdf:about="">
        <dc:format>image/svg+xml</dc:format>
        <dc:type
           rdf:resource="http://purl.org/dc/dcmitype/StillImage" />
        <dc:title></dc:title>
      </cc:Work>
    </rdf:RDF>
  </metadata>
  <g
     inkscape:label="Layer 1"
     inkscape:groupmode="layer"
     id="layer1">
    <circle
       style="fill:#efefef;fill-opacity:1;stroke:none;stroke-width:0;stroke-dasharray:none;stroke-opacity:0.992157"
       id="path889"
       cx="67.73333"
       cy="67.73333"
       r="66.410416" />
    <path
       style="color:#000000;font-style:normal;font-variant:normal;font-weight:normal;font-stretch:normal;font-size:medium;line-height:normal;font-family:sans-serif;font-variant-ligatures:normal;font-variant-position:normal;font-variant-caps:normal;font-variant-numeric:normal;font-variant-alternates:normal;font-variant-east-asian:normal;font-feature-settings:normal;font-variation-settings:normal;text-indent:0;text-align:start;text-decoration:none;text-decoration-line:none;text-decoration-style:solid;text-decoration-color:#000000;letter-spacing:normal;word-spacing:normal;text-transform:none;writing-mode:lr-tb;direction:ltr;text-orientation:mixed;dominant-baseline:auto;baseline-shift:baseline;text-anchor:start;white-space:normal;shape-padding:0;shape-margin:0;inline-size:0;clip-rule:nonzero;display:inline;overflow:visible;visibility:visible;isolation:auto;mix-blend-mode:normal;color-interpolation:sRGB;color-interpolation-filters:linearRGB;solid-color:#000000;solid-opacity:1;vector-effect:none;fill:#003057;fill-opacity:1;fill-rule:nonzero;stroke:none;stroke-width:13.2452;stroke-linecap:butt;stroke-linejoin:miter;stroke-miterlimit:4;stroke-dasharray:none;stroke-dashoffset:0;stroke-opacity:1;color-rendering:auto;image-rendering:auto;shape-rendering:auto;text-rendering:auto;enable-background:accumulate;stop-color:#000000"
       d="m 83.625618,14.135803 v 0 L 46.07182,51.6896 V 14.119813 H 32.826658 v 50.814949 5.48514 50.816578 H 46.07182 V 83.665064 l 37.571416,37.571416 v 0 H 102.37354 L 97.690148,116.55309 48.814391,67.677332 97.690148,18.801574 102.37191,14.119813 Z"
       id="path2999"
       sodipodi:nodetypes="cccccccccccccccccc" />
    <g
       id="g3151"
       style="opacity:0.83835616">
      <path
         id="path3108"
         style="color:#000000;font-style:normal;font-variant:normal;font-weight:normal;font-stretch:normal;font-size:medium;line-height:normal;font-family:sans-serif;font-variant-ligatures:normal;font-variant-position:normal;font-variant-caps:normal;font-variant-numeric:normal;font-variant-alternates:normal;font-variant-east-asian:normal;font-feature-settings:normal;font-variation-settings:normal;text-indent:0;text-align:start;text-decoration:none;text-decoration-line:none;text-decoration-style:solid;text-decoration-color:#000000;letter-spacing:normal;word-spacing:normal;text-transform:none;writing-mode:lr-tb;direction:ltr;text-orientation:mixed;dominant-baseline:auto;baseline-shift:baseline;text-anchor:start;white-space:normal;shape-padding:0;shape-margin:0;inline-size:0;clip-rule:nonzero;display:inline;overflow:visible;visibility:visible;isolation:auto;mix-blend-mode:normal;color-interpolation:sRGB;color-interpolation-filters:linearRGB;solid-color:#000000;solid-opacity:1;vector-effect:none;fill:#b3a369;fill-opacity:1;fill-rule:nonzero;stroke:none;stroke-width:0.221;stroke-linecap:butt;stroke-linejoin:miter;stroke-miterlimit:4;stroke-dasharray:none;stroke-dashoffset:0;stroke-opacity:1;color-rendering:auto;image-rendering:auto;shape-rendering:auto;text-rendering:auto;enable-background:accumulate;stop-color:#000000;filter:url(#filter3125)"
         d="m 65.110237,41.652753 c -1.381537,0.0065 -2.775095,0.170339 -4.174939,0.510564 l -5.29e-4,5.29e-4 h -5.3e-4 C 54.539014,43.754595 49.949901,47.657562 46.7811,50.826365 l -14.065292,14.062707 0.02119,5.596557 1.952337,1.951302 4.574397,4.5744 -0.0011,5.29e-4 6.730854,6.731373 37.604424,37.603907 H 102.6402 L 72.613138,91.320005 79.943956,83.989187 c 3.168809,-3.168806 7.071776,-7.758433 8.662519,-14.153658 1.593562,-6.406507 -0.210735,-14.592292 -6.645071,-21.026622 l -0.0036,-0.0036 -0.0036,-0.0031 C 76.850231,44.544218 71.09684,41.624636 65.110237,41.652753 Z m 0.0011,0.221176 c 5.912474,-0.02777 11.618862,2.858595 16.697174,7.09414 6.380141,6.38224 8.157329,14.488912 6.584092,20.813718 -1.576297,6.337138 -5.447122,10.893819 -8.604641,14.051338 l -7.486883,7.48688 29.805931,29.805935 H 83.688975 l -37.539311,-37.538796 -6.513814,-6.51433 0.0011,-5.29e-4 -4.791438,-4.79144 -1.888257,-1.887222 -0.02016,-5.413624 14.000178,-13.997596 c 3.157336,-3.157334 7.713239,-7.027645 14.049787,-8.604125 1.38298,-0.336127 2.759512,-0.497952 4.124296,-0.504362 z m 0.130225,13.031245 c -0.386704,-0.0057 -0.759068,0.02897 -1.108459,0.110588 h -5.29e-4 l -0.0011,5.29e-4 c -2.581569,0.642138 -5.712394,2.901712 -7.985559,5.174877 l -7.485848,7.486364 14.432711,14.43116 7.485848,-7.484813 c 2.273178,-2.273181 4.531709,-5.404019 5.173843,-7.985559 0.647374,-2.602598 -0.815814,-5.939584 -2.793627,-8.189682 l -0.0026,-0.0031 -0.0026,-0.0026 c -1.566717,-1.542719 -5.005774,-3.49818 -7.712191,-3.53777 z m -0.0031,0.221176 c 2.600026,0.03803 6.039623,1.978104 7.55768,3.471624 1.940105,2.208847 3.359706,5.505146 2.742467,7.986591 -0.622776,2.503723 -2.863003,5.630277 -5.115967,7.883239 L 63.092821,81.796556 48.972237,67.677521 56.30202,60.347219 c 2.252536,-2.252536 5.378239,-4.493207 7.881689,-5.116483 0.328933,-0.07684 0.683194,-0.109821 1.054716,-0.104386 z M 65.110753,41.763341 c -1.373161,0.0065 -2.758204,0.169286 -4.149616,0.507463 -6.366182,1.583526 -10.938819,5.470419 -14.101982,8.633581 l -14.032735,14.030153 0.02066,5.50509 1.920298,1.919261 4.682919,4.682919 -0.0011,5.29e-4 6.622336,6.622852 37.571864,37.571351 H 102.37357 L 72.457076,91.320005 79.865925,83.911156 c 3.163166,-3.163163 7.050061,-7.736316 8.633582,-14.102498 1.583529,-6.366182 -0.2076,-14.513192 -6.616134,-20.92172 -5.091657,-4.247724 -10.822257,-7.151545 -16.77262,-7.123597 z m 0.129191,13.252421 c 2.653797,0.03882 6.094357,1.987478 7.636227,3.505729 1.959692,2.229479 3.401798,5.547317 2.769341,8.089947 -0.632455,2.54263 -2.881837,5.671328 -5.144908,7.934399 L 63.09279,81.95262 48.81614,67.677521 56.223958,60.269188 c 2.263068,-2.263069 5.391766,-4.513485 7.934399,-5.145939 0.339161,-0.07923 0.702474,-0.113033 1.081587,-0.107487 z" />
      <g
         id="g3146">
        <path
           id="path3127"
           style="color:#000000;font-style:normal;font-variant:normal;font-weight:normal;font-stretch:normal;font-size:medium;line-height:normal;font-family:sans-serif;font-variant-ligatures:normal;font-variant-position:normal;font-variant-caps:normal;font-variant-numeric:normal;font-variant-alternates:normal;font-variant-east-asian:normal;font-feature-settings:normal;font-variation-settings:normal;text-indent:0;text-align:start;text-decoration:none;text-decoration-line:none;text-decoration-style:solid;text-decoration-color:#000000;letter-spacing:normal;word-spacing:normal;text-transform:none;writing-mode:lr-tb;direction:ltr;text-orientation:mixed;dominant-baseline:auto;baseline-shift:baseline;text-anchor:start;white-space:normal;shape-padding:0;shape-margin:0;inline-size:0;clip-rule:nonzero;display:inline;overflow:visible;visibility:visible;isolation:auto;mix-blend-mode:normal;color-interpolation:sRGB;color-interpolation-filters:linearRGB;solid-color:#000000;solid-opacity:1;vector-effect:none;fill:url(#linearGradient3135);fill-opacity:1;fill-rule:nonzero;stroke:none;stroke-width:0.221;stroke-linecap:butt;stroke-linejoin:miter;stroke-miterlimit:4;stroke-dasharray:none;stroke-dashoffset:0;stroke-opacity:1;color-rendering:auto;image-rendering:auto;shape-rendering:auto;text-rendering:auto;enable-background:accumulate;stop-color:#000000;opacity:0.2630137"
           d="m 65.110237,41.652753 c -1.381537,0.0065 -2.775095,0.170339 -4.174939,0.510564 l -5.29e-4,5.29e-4 h -5.3e-4 C 54.539014,43.754595 49.949901,47.657562 46.7811,50.826365 l -14.065292,14.062707 0.02119,5.596557 1.952337,1.951302 4.574397,4.5744 -0.0011,5.29e-4 6.730854,6.731373 37.604424,37.603907 H 102.6402 L 72.613138,91.320005 79.943956,83.989187 c 3.168809,-3.168806 7.071776,-7.758433 8.662519,-14.153658 1.593562,-6.406507 -0.210735,-14.592292 -6.645071,-21.026622 l -0.0036,-0.0036 -0.0036,-0.0031 C 76.850231,44.544218 71.09684,41.624636 65.110237,41.652753 Z m 0.0011,0.221176 c 5.912474,-0.02777 11.618862,2.858595 16.697174,7.09414 6.380141,6.38224 8.157329,14.488912 6.584092,20.813718 -1.576297,6.337138 -5.447122,10.893819 -8.604641,14.051338 l -7.486883,7.48688 29.805931,29.805935 H 83.688975 l -37.539311,-37.538796 -6.513814,-6.51433 0.0011,-5.29e-4 -4.791438,-4.79144 -1.888257,-1.887222 -0.02016,-5.413624 14.000178,-13.997596 c 3.157336,-3.157334 7.713239,-7.027645 14.049787,-8.604125 1.38298,-0.336127 2.759512,-0.497952 4.124296,-0.504362 z m 0.130225,13.031245 c -0.386704,-0.0057 -0.759068,0.02897 -1.108459,0.110588 h -5.29e-4 l -0.0011,5.29e-4 c -2.581569,0.642138 -5.712394,2.901712 -7.985559,5.174877 l -7.485848,7.486364 14.432711,14.43116 7.485848,-7.484813 c 2.273178,-2.273181 4.531709,-5.404019 5.173843,-7.985559 0.647374,-2.602598 -0.815814,-5.939584 -2.793627,-8.189682 l -0.0026,-0.0031 -0.0026,-0.0026 c -1.566717,-1.542719 -5.005774,-3.49818 -7.712191,-3.53777 z m -0.0031,0.221176 c 2.600026,0.03803 6.039623,1.978104 7.55768,3.471624 1.940105,2.208847 3.359706,5.505146 2.742467,7.986591 -0.622776,2.503723 -2.863003,5.630277 -5.115967,7.883239 L 63.092821,81.796556 48.972237,67.677521 56.30202,60.347219 c 2.252536,-2.252536 5.378239,-4.493207 7.881689,-5.116483 0.328933,-0.07684 0.683194,-0.109821 1.054716,-0.104386 z M 65.110753,41.763341 c -1.373161,0.0065 -2.758204,0.169286 -4.149616,0.507463 -6.366182,1.583526 -10.938819,5.470419 -14.101982,8.633581 l -14.032735,14.030153 0.02066,5.50509 1.920298,1.919261 4.682919,4.682919 -0.0011,5.29e-4 6.622336,6.622852 37.571864,37.571351 H 102.37357 L 72.457076,91.320005 79.865925,83.911156 c 3.163166,-3.163163 7.050061,-7.736316 8.633582,-14.102498 1.583529,-6.366182 -0.2076,-14.513192 -6.616134,-20.92172 -5.091657,-4.247724 -10.822257,-7.151545 -16.77262,-7.123597 z m 0.129191,13.252421 c 2.653797,0.03882 6.094357,1.987478 7.636227,3.505729 1.959692,2.229479 3.401798,5.547317 2.769341,8.089947 -0.632455,2.54263 -2.881837,5.671328 -5.144908,7.934399 L 63.09279,81.95262 48.81614,67.677521 56.223958,60.269188 c 2.263068,-2.263069 5.391766,-4.513485 7.934399,-5.145939 0.339161,-0.07923 0.702474,-0.113033 1.081587,-0.107487 z" />
      </g>
    </g>
  </g>
</svg>
